<svg width="305" height="154" viewBox="0 0 305 154" fill="none" xmlns="http://www.w3.org/2000/svg">
<rect x="0.150391" width="304.414" height="153.443" fill="white"/>
<path d="M0 113.182V39.1395H29.1027C33.7989 39.1395 37.7409 40.0993 40.9289 42.0189C44.1168 43.9385 46.5163 46.4237 48.1274 49.4745C49.7385 52.4911 50.5441 55.679 50.5441 59.0383C50.5441 63.1175 49.5328 66.6139 47.5104 69.5276C45.5222 72.4413 42.8313 74.4295 39.4377 75.4921L39.3349 72.9726C44.0654 74.1381 47.6989 76.4176 50.2356 79.8112C52.7722 83.1706 54.0405 87.0955 54.0405 91.586C54.0405 95.9394 53.1664 99.7272 51.4182 102.949C49.7042 106.172 47.1847 108.691 43.8597 110.508C40.5689 112.29 36.5755 113.182 31.8793 113.182H0ZM10.9007 102.949H30.2339C32.6677 102.949 34.8444 102.487 36.764 101.561C38.7179 100.636 40.2433 99.3159 41.3402 97.6019C42.4714 95.8537 43.037 93.7798 43.037 91.3803C43.037 89.1522 42.54 87.1469 41.5459 85.3644C40.5861 83.5476 39.1806 82.1251 37.3296 81.0967C35.5128 80.034 33.3704 79.5027 30.9023 79.5027H10.9007V102.949ZM10.9007 69.3733H28.9484C30.9366 69.3733 32.7191 68.9791 34.2959 68.1907C35.907 67.368 37.1753 66.2026 38.1009 64.6943C39.0607 63.1517 39.5406 61.3007 39.5406 59.1411C39.5406 56.2617 38.5808 53.8965 36.6611 52.0454C34.7415 50.1944 32.1706 49.2688 28.9484 49.2688H10.9007V69.3733Z" fill="black" fill-opacity="0.02"/>
<path d="M68.1291 113.182L94.1466 49.3717H61.1876V39.1395H105.716V49.3717L79.7496 113.182H68.1291Z" fill="black" fill-opacity="0.02"/>
<path d="M141.805 114.724C136.972 114.724 132.687 113.764 128.95 111.845C125.248 109.891 122.335 107.183 120.209 103.721C118.118 100.259 117.073 96.2479 117.073 91.6888C117.073 87.4383 118.067 83.5476 120.055 80.0169C122.043 76.4862 125.008 73.7096 128.95 71.6872L128.745 75.3893C125.591 73.4354 123.157 71.0016 121.443 68.0879C119.764 65.1399 118.924 61.8492 118.924 58.2156C118.924 53.9993 119.901 50.3486 121.855 47.2635C123.809 44.1784 126.499 41.7961 129.927 40.1164C133.389 38.4368 137.349 37.5969 141.805 37.5969C146.261 37.5969 150.203 38.4368 153.631 40.1164C157.059 41.7961 159.75 44.1784 161.704 47.2635C163.658 50.3486 164.635 53.9993 164.635 58.2156C164.635 61.8492 163.829 65.1228 162.218 68.0365C160.607 70.9502 158.139 73.4011 154.814 75.3893L154.659 71.79C158.567 73.7096 161.532 76.4519 163.555 80.0169C165.577 83.5476 166.588 87.4383 166.588 91.6888C166.588 96.2479 165.526 100.259 163.4 103.721C161.275 107.183 158.344 109.891 154.608 111.845C150.872 113.764 146.604 114.724 141.805 114.724ZM141.805 104.492C145.781 104.492 149.003 103.412 151.471 101.253C153.94 99.0588 155.174 95.8708 155.174 91.6888C155.174 87.5068 153.94 84.3189 151.471 82.1251C149.038 79.8969 145.815 78.7829 141.805 78.7829C137.794 78.7829 134.555 79.8969 132.087 82.1251C129.653 84.3189 128.436 87.5068 128.436 91.6888C128.436 95.8708 129.67 99.0588 132.138 101.253C134.606 103.412 137.829 104.492 141.805 104.492ZM141.805 68.4992C145.198 68.4992 147.941 67.6594 150.032 65.9798C152.157 64.2658 153.22 61.6778 153.22 58.2156C153.22 54.7534 152.157 52.1654 150.032 50.4515C147.941 48.7032 145.198 47.8291 141.805 47.8291C138.411 47.8291 135.652 48.7032 133.527 50.4515C131.401 52.1654 130.339 54.7534 130.339 58.2156C130.339 61.6778 131.401 64.2658 133.527 65.9798C135.652 67.6594 138.411 68.4992 141.805 68.4992Z" fill="black" fill-opacity="0.02"/>
<path d="M173.793 113.182L199.04 75.6978L174.462 39.1395H187.625L205.673 66.5968L223.618 39.1395H236.832L212.254 75.6978L237.449 113.182H224.286L205.673 84.8502L187.008 113.182H173.793Z" fill="black" fill-opacity="0.02"/>
<path d="M245.642 113.182V39.1395H256.389V71.0701H293.41V39.1395H304.208V113.182H293.41V81.1995H256.389V113.182H245.642Z" fill="black" fill-opacity="0.02"/>
</svg>
