<svg width="374" height="173" viewBox="0 0 374 173" fill="none" xmlns="http://www.w3.org/2000/svg">
<rect x="212.139" y="117.662" width="106.566" height="53.7158" fill="white"/>
<path d="M212.086 157.284V131.364H222.274C223.918 131.364 225.298 131.7 226.414 132.372C227.53 133.044 228.37 133.914 228.934 134.982C229.498 136.038 229.78 137.154 229.78 138.33C229.78 139.758 229.426 140.982 228.718 142.002C228.022 143.022 227.08 143.718 225.892 144.09L225.856 143.208C227.512 143.616 228.784 144.414 229.672 145.602C230.56 146.778 231.004 148.152 231.004 149.724C231.004 151.248 230.698 152.574 230.086 153.702C229.486 154.83 228.604 155.712 227.44 156.348C226.288 156.972 224.89 157.284 223.246 157.284H212.086ZM215.902 153.702H222.67C223.522 153.702 224.284 153.54 224.956 153.216C225.64 152.892 226.174 152.43 226.558 151.83C226.954 151.218 227.152 150.492 227.152 149.652C227.152 148.872 226.978 148.17 226.63 147.546C226.294 146.91 225.802 146.412 225.154 146.052C224.518 145.68 223.768 145.494 222.904 145.494H215.902V153.702ZM215.902 141.948H222.22C222.916 141.948 223.54 141.81 224.092 141.534C224.656 141.246 225.1 140.838 225.424 140.31C225.76 139.77 225.928 139.122 225.928 138.366C225.928 137.358 225.592 136.53 224.92 135.882C224.248 135.234 223.348 134.91 222.22 134.91H215.902V141.948Z" fill="black" fill-opacity="0.03"/>
<path d="M235.936 157.284L245.044 134.946H233.506V131.364H249.094V134.946L240.004 157.284H235.936Z" fill="black" fill-opacity="0.03"/>
<path d="M261.728 157.824C260.036 157.824 258.536 157.488 257.228 156.816C255.932 156.132 254.912 155.184 254.168 153.972C253.436 152.76 253.07 151.356 253.07 149.76C253.07 148.272 253.418 146.91 254.114 145.674C254.81 144.438 255.848 143.466 257.228 142.758L257.156 144.054C256.052 143.37 255.2 142.518 254.6 141.498C254.012 140.466 253.718 139.314 253.718 138.042C253.718 136.566 254.06 135.288 254.744 134.208C255.428 133.128 256.37 132.294 257.57 131.706C258.782 131.118 260.168 130.824 261.728 130.824C263.288 130.824 264.668 131.118 265.868 131.706C267.068 132.294 268.01 133.128 268.694 134.208C269.378 135.288 269.72 136.566 269.72 138.042C269.72 139.314 269.438 140.46 268.874 141.48C268.31 142.5 267.446 143.358 266.282 144.054L266.228 142.794C267.596 143.466 268.634 144.426 269.342 145.674C270.05 146.91 270.404 148.272 270.404 149.76C270.404 151.356 270.032 152.76 269.288 153.972C268.544 155.184 267.518 156.132 266.21 156.816C264.902 157.488 263.408 157.824 261.728 157.824ZM261.728 154.242C263.12 154.242 264.248 153.864 265.112 153.108C265.976 152.34 266.408 151.224 266.408 149.76C266.408 148.296 265.976 147.18 265.112 146.412C264.26 145.632 263.132 145.242 261.728 145.242C260.324 145.242 259.19 145.632 258.326 146.412C257.474 147.18 257.048 148.296 257.048 149.76C257.048 151.224 257.48 152.34 258.344 153.108C259.208 153.864 260.336 154.242 261.728 154.242ZM261.728 141.642C262.916 141.642 263.876 141.348 264.608 140.76C265.352 140.16 265.724 139.254 265.724 138.042C265.724 136.83 265.352 135.924 264.608 135.324C263.876 134.712 262.916 134.406 261.728 134.406C260.54 134.406 259.574 134.712 258.83 135.324C258.086 135.924 257.714 136.83 257.714 138.042C257.714 139.254 258.086 140.16 258.83 140.76C259.574 141.348 260.54 141.642 261.728 141.642Z" fill="black" fill-opacity="0.03"/>
<path d="M272.926 157.284L281.764 144.162L273.16 131.364H277.768L284.086 140.976L290.368 131.364H294.994L286.39 144.162L295.21 157.284H290.602L284.086 147.366L277.552 157.284H272.926Z" fill="black" fill-opacity="0.03"/>
<path d="M298.078 157.284V131.364H301.84V142.542H314.8V131.364H318.58V157.284H314.8V146.088H301.84V157.284H298.078Z" fill="black" fill-opacity="0.03"/>
</svg>
