<svg width="987" height="251" viewBox="0 0 987 251" fill="none" xmlns="http://www.w3.org/2000/svg">
<path d="M0 245.717V5.59937H94.3795C109.609 5.59937 122.393 8.71201 132.732 14.9373C143.07 21.1625 150.852 29.222 156.076 39.1158C161.301 48.8983 163.913 59.2367 163.913 70.1309C163.913 83.3596 160.634 94.6985 154.075 104.148C147.628 113.597 138.901 120.044 127.896 123.49L127.562 115.32C142.903 119.099 154.687 126.492 162.913 137.497C171.139 148.391 175.252 161.12 175.252 175.683C175.252 189.801 172.418 202.084 166.748 212.534C161.19 222.983 153.019 231.154 142.236 237.046C131.564 242.826 118.614 245.717 103.384 245.717H0ZM35.3506 212.534H98.0479C105.941 212.534 113 211.033 119.225 208.032C125.561 205.03 130.508 200.75 134.066 195.192C137.734 189.523 139.568 182.797 139.568 175.016C139.568 167.79 137.956 161.287 134.733 155.506C131.62 149.614 127.062 145.001 121.059 141.666C115.167 138.22 108.22 136.497 100.216 136.497H35.3506V212.534ZM35.3506 103.647H93.8792C100.327 103.647 106.107 102.369 111.221 99.8121C116.446 97.1441 120.559 93.3645 123.56 88.4732C126.673 83.4708 128.229 77.4679 128.229 70.4644C128.229 61.1265 125.117 53.4561 118.891 47.4532C112.666 41.4502 104.329 38.4488 93.8792 38.4488H35.3506V103.647Z" fill="#080D19"/>
<path d="M220.941 245.717L305.316 38.7823H198.43V5.59937H342.834V38.7823L258.626 245.717H220.941Z" fill="#080D19"/>
<path d="M459.871 250.719C444.196 250.719 430.301 247.607 418.184 241.381C406.178 235.045 396.729 226.263 389.836 215.035C383.055 203.807 379.665 190.801 379.665 176.016C379.665 162.232 382.889 149.614 389.336 138.164C395.784 126.714 405.4 117.71 418.184 111.151L417.517 123.157C407.289 116.82 399.397 108.928 393.838 99.4786C388.391 89.9184 385.668 79.2465 385.668 67.463C385.668 53.7896 388.836 41.9505 395.172 31.9456C401.509 21.9407 410.235 14.2147 421.352 8.76758C432.58 3.32048 445.419 0.596924 459.871 0.596924C474.322 0.596924 487.106 3.32048 498.223 8.76758C509.339 14.2147 518.066 21.9407 524.402 31.9456C530.739 41.9505 533.907 53.7896 533.907 67.463C533.907 79.2465 531.294 89.8628 526.07 99.3119C520.845 108.761 512.841 116.709 502.058 123.157L501.558 111.484C514.231 117.71 523.846 126.603 530.405 138.164C536.964 149.614 540.243 162.232 540.243 176.016C540.243 190.801 536.797 203.807 529.905 215.035C523.013 226.263 513.508 235.045 501.391 241.381C489.274 247.607 475.434 250.719 459.871 250.719ZM459.871 217.536C472.766 217.536 483.215 214.035 491.219 207.031C499.223 199.917 503.225 189.578 503.225 176.016C503.225 162.454 499.223 152.115 491.219 145.001C483.327 137.775 472.877 134.162 459.871 134.162C446.864 134.162 436.359 137.775 428.355 145.001C420.463 152.115 416.516 162.454 416.516 176.016C416.516 189.578 420.518 199.917 428.522 207.031C436.526 214.035 446.975 217.536 459.871 217.536ZM459.871 100.813C470.876 100.813 479.769 98.0891 486.55 92.6419C493.443 87.0837 496.889 78.6907 496.889 67.463C496.889 56.2352 493.443 47.8422 486.55 42.284C479.769 36.6145 470.876 33.7798 459.871 33.7798C448.865 33.7798 439.916 36.6145 433.024 42.284C426.132 47.8422 422.686 56.2352 422.686 67.463C422.686 78.6907 426.132 87.0837 433.024 92.6419C439.916 98.0891 448.865 100.813 459.871 100.813Z" fill="#080D19"/>
<path d="M563.609 245.717L645.482 124.157L565.777 5.59937H608.464L666.993 94.6429L725.188 5.59937H768.042L688.337 124.157L770.043 245.717H727.356L666.993 153.839L606.463 245.717H563.609Z" fill="#080D19"/>
<path d="M796.613 245.717V5.59937H831.464V109.15H951.522V5.59937H986.54V245.717H951.522V141.999H831.464V245.717H796.613Z" fill="#080D19"/>
</svg>
